<svg width="20" height="20" viewBox="0 0 20 20" fill="none" xmlns="http://www.w3.org/2000/svg">
<path d="M16.5333 4.8665C16.5333 5.6397 15.9065 6.2665 15.1333 6.2665C14.3601 6.2665 13.7333 5.6397 13.7333 4.8665C13.7333 4.09331 14.3601 3.4665 15.1333 3.4665C15.9065 3.4665 16.5333 4.09331 16.5333 4.8665Z" fill="black"/>
<path fill-rule="evenodd" clip-rule="evenodd" d="M10 14.6665C12.5773 14.6665 14.6667 12.5772 14.6667 9.99984C14.6667 7.42251 12.5773 5.33317 10 5.33317C7.42268 5.33317 5.33334 7.42251 5.33334 9.99984C5.33334 12.5772 7.42268 14.6665 10 14.6665ZM10 12.7998C11.5464 12.7998 12.8 11.5462 12.8 9.99984C12.8 8.45344 11.5464 7.19984 10 7.19984C8.45361 7.19984 7.20001 8.45344 7.20001 9.99984C7.20001 11.5462 8.45361 12.7998 10 12.7998Z" fill="black"/>
<path fill-rule="evenodd" clip-rule="evenodd" d="M0.666672 9.6265C0.666672 6.49021 0.666672 4.92206 1.27704 3.72416C1.81393 2.67045 2.67062 1.81376 3.72433 1.27687C4.92223 0.666504 6.49038 0.666504 9.62667 0.666504H10.3733C13.5096 0.666504 15.0778 0.666504 16.2757 1.27687C17.3294 1.81376 18.1861 2.67045 18.723 3.72416C19.3333 4.92206 19.3333 6.49021 19.3333 9.6265V10.3732C19.3333 13.5095 19.3333 15.0776 18.723 16.2755C18.1861 17.3292 17.3294 18.1859 16.2757 18.7228C15.0778 19.3332 13.5096 19.3332 10.3733 19.3332H9.62667C6.49038 19.3332 4.92223 19.3332 3.72433 18.7228C2.67062 18.1859 1.81393 17.3292 1.27704 16.2755C0.666672 15.0776 0.666672 13.5095 0.666672 10.3732V9.6265ZM9.62667 2.53317H10.3733C11.9723 2.53317 13.0592 2.53462 13.8994 2.60327C14.7178 2.67013 15.1363 2.79133 15.4282 2.94008C16.1307 3.29801 16.7018 3.86913 17.0598 4.57161C17.2085 4.86355 17.3297 5.28207 17.3966 6.10044C17.4652 6.94061 17.4667 8.02756 17.4667 9.6265V10.3732C17.4667 11.9721 17.4652 13.0591 17.3966 13.8992C17.3297 14.7176 17.2085 15.1361 17.0598 15.4281C16.7018 16.1305 16.1307 16.7017 15.4282 17.0596C15.1363 17.2084 14.7178 17.3295 13.8994 17.3964C13.0592 17.4651 11.9723 17.4665 10.3733 17.4665H9.62667C8.02772 17.4665 6.94078 17.4651 6.10061 17.3964C5.28223 17.3295 4.86372 17.2084 4.57177 17.0596C3.8693 16.7017 3.29817 16.1305 2.94025 15.4281C2.79149 15.1361 2.6703 14.7176 2.60343 13.8992C2.53479 13.0591 2.53334 11.9721 2.53334 10.3732V9.6265C2.53334 8.02756 2.53479 6.94061 2.60343 6.10044C2.6703 5.28207 2.79149 4.86355 2.94025 4.57161C3.29817 3.86913 3.8693 3.29801 4.57177 2.94008C4.86372 2.79133 5.28223 2.67013 6.10061 2.60327C6.94078 2.53462 8.02772 2.53317 9.62667 2.53317Z" fill="black"/>
</svg>
