<svg width="24" height="24" viewBox="0 0 24 24" fill="none" xmlns="http://www.w3.org/2000/svg">
<path d="M18.5332 6.86663C18.5332 7.63983 17.9064 8.26663 17.1332 8.26663C16.36 8.26663 15.7332 7.63983 15.7332 6.86663C15.7332 6.09343 16.36 5.46663 17.1332 5.46663C17.9064 5.46663 18.5332 6.09343 18.5332 6.86663Z" fill="black"/>
<path fill-rule="evenodd" clip-rule="evenodd" d="M11.9998 16.6666C14.5772 16.6666 16.6665 14.5773 16.6665 12C16.6665 9.42263 14.5772 7.33329 11.9998 7.33329C9.42251 7.33329 7.33317 9.42263 7.33317 12C7.33317 14.5773 9.42251 16.6666 11.9998 16.6666ZM11.9998 14.8C13.5462 14.8 14.7998 13.5464 14.7998 12C14.7998 10.4536 13.5462 9.19996 11.9998 9.19996C10.4534 9.19996 9.19984 10.4536 9.19984 12C9.19984 13.5464 10.4534 14.8 11.9998 14.8Z" fill="black"/>
<path fill-rule="evenodd" clip-rule="evenodd" d="M2.6665 11.6266C2.6665 8.49033 2.6665 6.92218 3.27687 5.72428C3.81376 4.67057 4.67045 3.81388 5.72416 3.27699C6.92206 2.66663 8.49021 2.66663 11.6265 2.66663H12.3732C15.5095 2.66663 17.0776 2.66663 18.2755 3.27699C19.3292 3.81388 20.1859 4.67057 20.7228 5.72428C21.3332 6.92218 21.3332 8.49033 21.3332 11.6266V12.3733C21.3332 15.5096 21.3332 17.0777 20.7228 18.2756C20.1859 19.3293 19.3292 20.186 18.2755 20.7229C17.0776 21.3333 15.5095 21.3333 12.3732 21.3333H11.6265C8.49021 21.3333 6.92206 21.3333 5.72416 20.7229C4.67045 20.186 3.81376 19.3293 3.27687 18.2756C2.6665 17.0777 2.6665 15.5096 2.6665 12.3733V11.6266ZM11.6265 4.53329H12.3732C13.9721 4.53329 15.0591 4.53474 15.8992 4.60339C16.7176 4.67025 17.1361 4.79145 17.4281 4.9402C18.1305 5.29813 18.7017 5.86926 19.0596 6.57173C19.2084 6.86367 19.3295 7.28219 19.3964 8.10056C19.4651 8.94073 19.4665 10.0277 19.4665 11.6266V12.3733C19.4665 13.9722 19.4651 15.0592 19.3964 15.8994C19.3295 16.7177 19.2084 17.1362 19.0596 17.4282C18.7017 18.1307 18.1305 18.7018 17.4281 19.0597C17.1361 19.2085 16.7176 19.3297 15.8992 19.3965C15.0591 19.4652 13.9721 19.4666 12.3732 19.4666H11.6265C10.0276 19.4666 8.94061 19.4652 8.10044 19.3965C7.28207 19.3297 6.86355 19.2085 6.57161 19.0597C5.86913 18.7018 5.29801 18.1307 4.94008 17.4282C4.79133 17.1362 4.67013 16.7177 4.60327 15.8994C4.53462 15.0592 4.53317 13.9722 4.53317 12.3733V11.6266C4.53317 10.0277 4.53462 8.94073 4.60327 8.10056C4.67013 7.28219 4.79133 6.86367 4.94008 6.57173C5.29801 5.86926 5.86913 5.29813 6.57161 4.9402C6.86355 4.79145 7.28207 4.67025 8.10044 4.60339C8.94061 4.53474 10.0276 4.53329 11.6265 4.53329Z" fill="black"/>
</svg>
